<?xml version="1.0" encoding="utf-8"?>
<!-- Generator: Adobe Illustrator 25.0.0, SVG Export Plug-In . SVG Version: 6.00 Build 0)  -->
<svg version="1.1" xmlns="http://www.w3.org/2000/svg" xmlns:xlink="http://www.w3.org/1999/xlink" x="0px" y="0px"
	 viewBox="0 0 459.3 400.6" style="enable-background:new 0 0 459.3 400.6;" xml:space="preserve">
<style type="text/css">
	.st0{display:none;}
	.st1{display:inline;fill:#CEDBF4;}
	.st2{fill:#DBF6E9;}
	.st3{display:none;opacity:0.7;fill:#FFFFFF;}
	.st4{display:none;fill:#B8C6DD;}
	.st5{fill:#37354C;}
	.st6{fill:#F2AF97;}
	.st7{fill:#D65C5C;}
	.st8{fill:#E08D73;}
	.st9{fill:#6571B7;}
	.st10{fill:#D3AF53;}
	.st11{fill:#EAD18C;}
	.st12{fill:#FFFFFF;}
	.st13{fill:#7983E2;}
	.st14{fill:#524F63;}
	.st15{fill:#823F4A;}
	.st16{fill:#4758A0;}
	.st17{fill:#C45553;}
	.st18{fill:#413339;}
	.st19{fill:#61253F;}
	.st20{fill:#9092EC;}
	.st21{fill:#EFF2F7;}
	.st22{fill:#B23F3F;}
	.st23{fill:#D59A4F;}
	.st24{fill:#91616A;}
	.st25{fill:#662F20;}
	.st26{fill:none;stroke:#662F20;stroke-width:0.75;stroke-miterlimit:10;}
	.st27{fill:#BD8747;}
	.st28{fill:#B37637;}
	.st29{fill:#6B3F25;}
	.st30{fill:#5BB59B;}
	.st31{fill:#BCBACE;}
	.st32{fill:#A85C0F;}
	.st33{fill:#D8775D;}
	.st34{display:inline;}
	.st35{fill:#1D262D;}
</style>
<g id="BACKGROUND" class="st0">
	<rect x="-11.6" y="-48.9" class="st1" width="500" height="500"/>
</g>
<g id="OBJECTS">
	<path class="st2" d="M65.2,16.6c27-23,84,50.1,169.5,42.1C295.5,53,306.2,12.2,355,19.6c49.4,7.4,98.7,58.3,97.2,103.7
		c-1.5,46.1-54.6,61-49.8,106.7c3.3,31.1,28.9,34.8,30.8,67.6c2,34.7-24.3,75.1-53.9,80c-28,4.7-38.7-25.5-72.9-23.1
		c-29.8,2.1-30.1,25.7-61.6,34.4c-47.2,12.9-69-33.9-126.8-26.7c-38.9,4.8-49.5,28.6-70.5,19.6c-26.1-11.2-39.5-60.7-23.1-86.5
		c11.2-17.5,30.2-14.9,33.8-29c5.2-20.3-32.8-30.3-40.9-62.8c-8.8-35,28.8-49,40.9-112.6C66.8,44.8,51.9,27.9,65.2,16.6z"/>
	<path class="st3" d="M416.7,306.1c12.6-26,19.7-55.2,19.7-86c0-108.8-88.2-197-197-197s-197,88.2-197,197c0,30.8,7.1,60,19.7,86
		H416.7z"/>
	<ellipse class="st4" cx="112" cy="339.1" rx="60" ry="12"/>
	<ellipse class="st4" cx="212" cy="339.1" rx="60" ry="12"/>
	<ellipse class="st4" cx="299" cy="339.1" rx="60" ry="12"/>
	<ellipse class="st4" cx="371" cy="339.1" rx="60" ry="12"/>
	<g>
		<path class="st5" d="M177.7,122.9c0,0-9.3,11.1-11,20.8c-1.6,9.6-5.2,37.5-1.6,42.6c3.6,5.1,7.7,5.1,8.8,5.1
			c1.1,0,51.8,3.5,51.5-4.6c-0.3-8.1-5.2-61.6-5.2-61.6S198.3,113.8,177.7,122.9z"/>
		<path class="st6" d="M229.8,135.3c0,0,5.9,42.6,6.3,49c0.4,6.3-1.3,35.4-1.3,35.4l-5.9-0.4l-12.3-79L229.8,135.3z"/>
		<path class="st7" d="M217.1,118.9c-3.6-0.9-15.3-2.6-23.8-2.7l0,0c0,0-0.1,0-0.2,0c-0.2,0-0.2,0-0.2,0l0,0
			c-3.1,0.2-14.5,0.1-18.1,6.1c-4,6.6-6,60.8-6,60.8H219C219,183.1,218.6,119.2,217.1,118.9z"/>
		<path class="st8" d="M174,120.4c0,0-23.1,31.9-25.6,39.8c-2.5,7.9-3.3,10.2,2.5,13.1c6.4,3.1,10.3-4.5,11.8-9.9
			c2.3-8.7,8.2-22.3,8.5-23.4C171.8,138.4,174,120.4,174,120.4z"/>
		<polygon class="st6" points="208.4,298 208.7,324.3 209.9,327.2 217.5,329.1 217,292.3 		"/>
		<polygon class="st6" points="185.9,301.8 184.4,324.4 178.4,323.4 176.9,300.4 		"/>
		<path class="st9" d="M168.7,183.1l8.2,122.7l8.8,0.4l3.3-111.4l10,0.3c0,0,5.7,66.3,5.3,67.3s3.7,43.9,3.7,43.9l10-0.4l2.6-44.5
			l-1.7-78.3H168.7z"/>
		<g>
			<path class="st10" d="M216.3,325c0,0-1.4-3.3,0.5-3.6s2.9,0.9,2.9,0.9l4.5,5.2l2.3,3.8l-3.6-1.7L216.3,325z"/>
			<path class="st11" d="M209,323.3c0,0,1.5,3.7,3.1,3.1c0.9-0.4,2.5-3.3,3.7-2.9c1.2,0.5,5.7,3.9,7.4,4.8c1.7,0.9-3.5-6-3.5-6
				s4.4,4.7,6,5.5c1.5,0.8,14.5,4.2,14.8,8.3l-0.2,2.6c0,0-4.3,3.9-14.3,0.5c-10-3.4-15.7-4.1-17.5-4.8S207.5,323.4,209,323.3z"/>
			<path class="st12" d="M227.9,337.8c-4.8-0.8-12.7-4.3-15.8-4.7c-1.8-0.2-3.5-0.8-4.7-1.3c0.1,1.4,0.4,2.4,0.9,2.6
				c1.8,0.7,7.5,1.4,17.5,4.8c10,3.4,14.3-0.5,14.3-0.5l0.2-2.6C239.2,338.2,232.7,338.7,227.9,337.8z"/>
			<g>
				<path class="st12" d="M218.9,327.7c-0.1,0-0.2,0-0.2-0.1c-0.2-0.1-0.3-0.4-0.2-0.7c0-0.1,1.2-2.2,2.8-2.5
					c0.6-0.1,1.3,0.1,1.8,0.5c0.2,0.2,0.2,0.5,0.1,0.7c-0.2,0.2-0.5,0.2-0.7,0.1c-0.3-0.3-0.7-0.4-1-0.3c-0.9,0.2-1.8,1.5-2.1,2
					C219.2,327.6,219.1,327.7,218.9,327.7z"/>
			</g>
			<g>
				<path class="st12" d="M220.4,329.1c-0.1,0-0.2,0-0.2-0.1c-0.2-0.1-0.3-0.4-0.2-0.7c0-0.1,1.2-2.2,2.8-2.5
					c0.6-0.1,1.3,0.1,1.8,0.5c0.2,0.2,0.2,0.5,0.1,0.7c-0.2,0.2-0.5,0.2-0.7,0.1c-0.3-0.3-0.7-0.4-1-0.3c-0.9,0.2-1.8,1.5-2.1,2
					C220.8,329,220.6,329.1,220.4,329.1z"/>
			</g>
			<g>
				<path class="st12" d="M222.3,330.1c-0.1,0-0.2,0-0.2-0.1c-0.2-0.1-0.3-0.4-0.2-0.7c0-0.1,1.2-2.2,2.8-2.5
					c0.6-0.1,1.3,0.1,1.8,0.5c0.2,0.2,0.2,0.5,0.1,0.7c-0.2,0.2-0.5,0.2-0.7,0.1c-0.3-0.3-0.7-0.4-1-0.3c-0.9,0.2-1.8,1.5-2.1,2
					C222.7,330,222.5,330.1,222.3,330.1z"/>
			</g>
			<g>
				<path class="st12" d="M224.3,331c-0.1,0-0.2,0-0.2-0.1c-0.2-0.1-0.3-0.4-0.2-0.7c0-0.1,1.2-2.2,2.8-2.5c0.6-0.1,1.3,0.1,1.8,0.5
					c0.2,0.2,0.2,0.5,0.1,0.7c-0.2,0.2-0.5,0.2-0.7,0.1c-0.3-0.3-0.7-0.4-1-0.3c-0.9,0.2-1.8,1.5-2.1,2
					C224.7,330.9,224.5,331,224.3,331z"/>
			</g>
		</g>
		<path class="st7" d="M159.7,138.3l12,15l11.5-35.9c0,0-12.8,0-15.6,4.5C165.3,125.6,160.8,131.7,159.7,138.3z"/>
		<polygon class="st13" points="206.1,300.7 219.4,300.7 218.9,306.5 206.9,306.4 		"/>
		<polygon class="st13" points="174.9,300.5 188.3,300.5 187.9,306.3 175.7,306.3 		"/>
		<path class="st14" d="M168.8,167.5c2.9-2,7.8-23.5,8.8-26.9c2.1-7.1,2.9-15.8,2.8-23.2c-2.5-1-5.3-0.2-7.9,0.8
			c-2.6,9.9-7.5,37.9-7.2,48.1C166.3,167.1,167.6,167.5,168.8,167.5z"/>
		<path class="st6" d="M177.2,139.1c0,3.4-2.8,6.2-6.2,6.2c-3.4,0-6.2-2.8-6.2-6.2c0-3.4,2.8-6.2,6.2-6.2
			C174.4,132.9,177.2,135.7,177.2,139.1z"/>
		<path class="st6" d="M166.5,142.1L148.9,162c0,0-7.6,10.2-0.2,13.9c5.3,2.6,9.7-2.9,12.5-6.3c0.5-0.6,9.5-24.1,9.5-24.1
			L166.5,142.1z"/>
		<path class="st6" d="M205.7,117.3c-3.6-0.6-7.8-1-12.4-1.1l0,0c0,0-0.1,0-0.2,0c-0.2,0-0.2,0-0.2,0l0,0c-1.7,0.1-5.6,0.1-9.5,1
			c-0.1,2,10.9,14.3,10.9,14.3S205.2,120.5,205.7,117.3z"/>
		<path class="st6" d="M193.3,104.4L193.3,104.4c-2.8,0-5,2.2-5,5v9.3c0,2.8,2.2,5,5,5l0,0c2.8,0,5-2.2,5-5v-9.3
			C198.3,106.6,196,104.4,193.3,104.4z"/>
		<path class="st8" d="M193.3,101.4L193.3,101.4c-2.8,0-5,2.2-5,5v6.4c1.6,0.5,3.3,0.7,5,0.7c1.7,0,3.4-0.3,5-0.7v-6.4
			C198.3,103.6,196,101.4,193.3,101.4z"/>
		
			<ellipse transform="matrix(0.1593 -0.9872 0.9872 0.1593 70.2688 269.358)" class="st6" cx="193.3" cy="93.4" rx="17.3" ry="17.3"/>
		<circle class="st6" cx="176.6" cy="94.4" r="5.2"/>
		<path class="st6" d="M214.7,94.4c0,2.9-2.3,5.2-5.2,5.2c-2.9,0-5.2-2.3-5.2-5.2s2.3-5.2,5.2-5.2C212.4,89.2,214.7,91.5,214.7,94.4
			z"/>
		<path class="st5" d="M188.4,95.1c0,0.7-0.6,1.3-1.3,1.3c-0.7,0-1.3-0.6-1.3-1.3c0-0.7,0.6-1.3,1.3-1.3
			C187.8,93.9,188.4,94.4,188.4,95.1z"/>
		<path class="st5" d="M200.5,95.1c0,0.7-0.6,1.3-1.3,1.3c-0.7,0-1.3-0.6-1.3-1.3c0-0.7,0.6-1.3,1.3-1.3
			C199.9,93.9,200.5,94.4,200.5,95.1z"/>
		<g>
			<path class="st5" d="M183.1,91.7l-0.7-0.7c2.6-2.8,6-2.1,6.1-2.1l-0.2,1C188.2,89.9,185.3,89.3,183.1,91.7z"/>
		</g>
		<g>
			<path class="st5" d="M203,91.7c-2.2-2.3-5.1-1.8-5.2-1.8l-0.2-1c0.1,0,3.5-0.7,6.1,2.1L203,91.7z"/>
		</g>
		<g>
			<path class="st12" d="M172.8,341.9c0,0-0.7,2.7-0.3,4.3c0.4,1.5,2,4.2,5.8,4.4c3.8,0.1,8.7,0.4,8.4-10.2L172.8,341.9z"/>
			<path class="st10" d="M178.4,325c0.3-0.6-0.7-5.1,2.4-4.9c3.1,0.2,3.5,1.6,3.3,3.9c-0.2,2.2-1.7,11.2-1.7,11.2l-4.4,0.4
				L178.4,325z"/>
			<path class="st11" d="M177.8,321.9c0,0-1.3,7.8-1.5,8.1c-0.1,0.3-4.1,12.2-3.6,14.1c0.4,1.4,2.8,3.3,7.8,3.1
				c3.9-0.1,6.7-3.7,6.1-7.5c-0.5-3.4-1.1-9.8-1.1-9.9c0-0.2-0.6-8-0.6-8s-3.7,5.5-4,12.3l-1.4-0.1
				C179.5,334,179.9,321.5,177.8,321.9z"/>
			<g>
				<path class="st12" d="M183.6,325.8c-0.1,0-0.3,0-0.4-0.1c-2.2-2.2-4.4-0.3-4.5-0.2c-0.2,0.2-0.5,0.2-0.7-0.1
					c-0.2-0.2-0.2-0.5,0.1-0.7c1.1-0.9,3.6-2,5.9,0.3c0.2,0.2,0.2,0.5,0,0.7C183.9,325.7,183.7,325.8,183.6,325.8z"/>
			</g>
			<g>
				<path class="st12" d="M183.3,328.3c-0.1,0-0.3,0-0.4-0.1c-2.2-2.2-4.4-0.3-4.5-0.2c-0.2,0.2-0.5,0.2-0.7-0.1
					c-0.2-0.2-0.2-0.5,0.1-0.7c1.1-0.9,3.6-2,5.9,0.3c0.2,0.2,0.2,0.5,0,0.7C183.5,328.3,183.4,328.3,183.3,328.3z"/>
			</g>
			<g>
				<path class="st12" d="M183,330.9c-0.1,0-0.3,0-0.4-0.1c-2.2-2.2-4.4-0.3-4.5-0.2c-0.2,0.2-0.5,0.2-0.7-0.1
					c-0.2-0.2-0.2-0.5,0.1-0.7c1.1-0.9,3.6-2,5.9,0.3c0.2,0.2,0.2,0.5,0,0.7C183.2,330.8,183.1,330.9,183,330.9z"/>
			</g>
			<g>
				<path class="st12" d="M182.6,333.5c-0.1,0-0.3,0-0.4-0.1c-2.2-2.2-4.4-0.3-4.5-0.2c-0.2,0.2-0.5,0.2-0.7-0.1
					c-0.2-0.2-0.2-0.5,0.1-0.7c1.1-0.9,3.6-2,5.9,0.3c0.2,0.2,0.2,0.5,0,0.7C182.9,333.4,182.8,333.5,182.6,333.5z"/>
			</g>
		</g>
		<path class="st7" d="M231.8,138.7l-12,15l-11.5-35.9c0,0,12.8,0,15.6,4.5C226.2,126,230.7,132.1,231.8,138.7z"/>
		<path class="st14" d="M218.2,167.5c-2.9-2-7.8-23.5-8.8-26.9c-2.1-7.1-2.9-15.8-2.8-23.2c2.5-1,5.3-0.2,7.9,0.8
			c2.6,9.9,7.5,37.9,7.2,48.1C220.7,167.1,219.4,167.5,218.2,167.5z"/>
		<path class="st5" d="M201.2,81.1c-1.7,1.5-5.3,1.7-7.5,1.6c-1.6-0.1-3.3-0.3-4.9-0.6c-1.5-0.3-2.9-0.7-4.2-1.6
			c-2-1.3-3.3-3.7-3.8-6.2c-0.5-2.5-0.2-8.2,0.5-10.6c5.3,5.5,11.7,4.3,16.9,6.8c1.1,0.5,2.2,1.4,2.4,2.7c0.7-1,2-0.3,3,0.2
			c2.1,1.2,4.3,2.6,5.6,4.9c0.7,1.3,1.1,2.8,1.2,4.3c0.3,3.2,0,7.1-1.7,9.7c-0.7-2.9-1.1-5.3-2.2-7.4S203.4,81.1,201.2,81.1z"/>
		<path class="st5" d="M177.5,91.2c-0.9-1.3-1.8-2.6-2.1-4.2c-0.3-1.6,0.1-3.2,0.6-4.7c0.6-1.9,1.4-3.8,2.3-5.5c0.5-1,1.2-2,2.1-2.5
			c1.5-0.7,3.3,0.1,3.9,1.8c0.5,1.6-0.8,3.4-1.5,4.8C181,84.3,178.6,87.4,177.5,91.2z"/>
		<g>
			<path class="st15" d="M187.6,100.5c0.4,2.9,2.9,5,5.9,5s5.4-2.2,5.9-5H187.6z"/>
			<path class="st12" d="M187.6,100.5c0.1,0.7,0.3,1.3,0.7,1.9h8.1c0.8,0,1.4-0.6,1.4-1.4v-0.5H187.6z"/>
		</g>
		<path class="st16" d="M169.5,195l0.1,0c4.9-1.8,8-6.7,7.6-11.9l0,0h-8.5L169.5,195z"/>
		<path class="st16" d="M219,183.1h-10.4l1.9,6c0.8,2.4,2.2,4.5,4.1,6.2c1.6,1.4,3.5,3,4.8,3.9L219,183.1z"/>
		<path class="st17" d="M214.6,221.6l0.2,21.8l0.2,0.6c1,2.8,4.8,3.3,6.4,0.7l0.3-0.5l1.1-22.8L214.6,221.6z"/>
		<path class="st17" d="M242.2,221l-19.4,0.3l-4.4,25.1l20.5-2.1c2.5-0.2,4.5-2.4,4.3-5L242.2,221z"/>
		<path class="st12" d="M215.6,221.5l0.3,20.4c0,0-0.1,2.2,2,2.2s1.7-2.6,1.7-2.6l0.6-20.2L215.6,221.5z"/>
		<path class="st6" d="M236.3,223.1c0,3.4-2.8,6.2-6.2,6.2c-3.4,0-6.2-2.8-6.2-6.2s2.8-6.2,6.2-6.2
			C233.5,216.9,236.3,219.6,236.3,223.1z"/>
	</g>
	<g>
		<path class="st18" d="M118.6,125.1c-0.9-1.2-2.2-2.1-3.7-2.4c-3.6-0.9-11.1-2.4-19.6-2.5l0,0c0,0-0.1,0-0.2,0c-0.2,0-0.2,0-0.2,0
			l0,0c-3.1,0.2-14.5,0.1-18.1,6.1c-4,6.6-6,60.8-6,60.8H121c0,0-1-24.4-2.8-42.4c4.8,8.8,11.1,20.2,11.1,20.7
			c0,0.8,6.5,11.4,6.5,11.4s7.8-0.6,11.6-3.1C152.3,170.3,125.1,133.8,118.6,125.1z"/>
		<path class="st19" d="M76,122.5c0,0-4,12.5-4.8,18c-0.7,5.5-9,45.4-9,45.4h3c0,0,8-43.8,8.6-45.8c0.5-2,5.2-15.7,5.2-15.7
			L76,122.5z"/>
		<polygon class="st17" points="91.2,142.1 94.7,139 119.2,135.8 125.1,170.5 99.5,173.7 		"/>
		<path class="st12" d="M92.4,142.7c0,0,2-2.5,2.3-2.5s23.7-3.3,23.7-3.3l5.6,32.9l-3,2.4l-23.4,1.6L92.4,142.7z"/>
		
			<rect x="93.5" y="140.1" transform="matrix(0.9899 -0.1415 0.1415 0.9899 -21.2119 16.6712)" class="st17" width="26.1" height="34.7"/>
		<polygon class="st20" points="86.2,147.6 89.7,144.5 114.2,141.3 120.1,176 94.5,179.2 		"/>
		<path class="st12" d="M87.4,148.2c0,0,2-2.5,2.3-2.5c0.2,0,23.7-3.3,23.7-3.3l5.6,32.9l-3,2.4l-23.4,1.6L87.4,148.2z"/>
		
			<rect x="88.6" y="145.6" transform="matrix(0.9899 -0.1415 0.1415 0.9899 -22.0432 16.0217)" class="st20" width="26.1" height="34.7"/>
		<circle class="st6" cx="91.2" cy="166.9" r="6.7"/>
		<path class="st18" d="M76,124.4c0,0-24.6,31.5-27.1,39.4c-2.5,7.9-2.7,13.3,3.1,16.2c6.4,3.1,13.1-5.9,14.6-11.3
			c2.3-8.7,6.3-23.6,6.7-24.7C73.8,142.4,76,124.4,76,124.4z"/>
		<polygon class="st6" points="121.6,312.6 123.5,330.4 126.2,334.5 132,332.1 129.5,321 127.4,310.4 		"/>
		<polygon class="st6" points="90.9,310.8 91.5,328.7 89.4,333.2 83.4,331.6 84.2,320.3 84.9,309.4 		"/>
		<path class="st7" d="M70.7,187.1l5.3,77.3l7.7,51.7h8l-0.3-53.3l4.7-64l3,0.3c0,0,13.7,66.3,13.3,67.3c-0.3,1,9.2,54.6,9.2,54.6h8
			l-0.9-55.6l-7.7-78.3H70.7z"/>
		<g>
			<path class="st5" d="M130.3,328.3c0,0-1.4-3.3,0.5-3.6c1.9-0.3,2.9,0.9,2.9,0.9l4.5,5.2l2.3,3.8l-3.6-1.7L130.3,328.3z"/>
			<path class="st14" d="M123,326.6c0,0,1.5,3.7,3.1,3.1c0.9-0.4,2.5-3.3,3.7-2.9c1.2,0.5,5.7,3.9,7.4,4.8c1.7,0.9-3.5-6-3.5-6
				s4.4,4.7,6,5.5c1.5,0.8,14.5,4.2,14.8,8.3l-0.2,2.6c0,0-4.3,3.9-14.3,0.5c-10-3.4-15.7-4.1-17.5-4.8
				C120.6,337,121.6,326.7,123,326.6z"/>
			<path class="st12" d="M142,341.1c-4.8-0.8-12.7-4.3-15.8-4.7c-1.8-0.2-3.5-0.8-4.7-1.3c0.1,1.4,0.4,2.4,0.9,2.6
				c1.8,0.7,7.5,1.4,17.5,4.8c10,3.4,14.3-0.5,14.3-0.5l0.2-2.6C153.3,341.5,146.8,341.9,142,341.1z"/>
			<g>
				<path class="st21" d="M133,331c-0.1,0-0.2,0-0.2-0.1c-0.2-0.1-0.3-0.4-0.2-0.7c0-0.1,1.2-2.2,2.8-2.5c0.6-0.1,1.3,0.1,1.8,0.5
					c0.2,0.2,0.2,0.5,0.1,0.7c-0.2,0.2-0.5,0.2-0.7,0.1c-0.3-0.3-0.7-0.4-1-0.3c-0.9,0.2-1.8,1.5-2.1,2
					C133.3,330.9,133.1,331,133,331z"/>
			</g>
			<g>
				<path class="st21" d="M134.5,332.4c-0.1,0-0.2,0-0.2-0.1c-0.2-0.1-0.3-0.4-0.2-0.7c0-0.1,1.2-2.2,2.8-2.5
					c0.6-0.1,1.3,0.1,1.8,0.5c0.2,0.2,0.2,0.5,0.1,0.7c-0.2,0.2-0.5,0.2-0.7,0.1c-0.3-0.3-0.7-0.4-1-0.3c-0.9,0.2-1.8,1.5-2.1,2
					C134.8,332.3,134.7,332.4,134.5,332.4z"/>
			</g>
			<g>
				<path class="st21" d="M136.4,333.4c-0.1,0-0.2,0-0.2-0.1c-0.2-0.1-0.3-0.4-0.2-0.7c0-0.1,1.2-2.2,2.8-2.5
					c0.6-0.1,1.3,0.1,1.8,0.5c0.2,0.2,0.2,0.5,0.1,0.7c-0.2,0.2-0.5,0.2-0.7,0.1c-0.3-0.3-0.7-0.4-1-0.3c-0.9,0.2-1.8,1.5-2.1,2
					C136.7,333.3,136.6,333.4,136.4,333.4z"/>
			</g>
			<g>
				<path class="st21" d="M138.4,334.3c-0.1,0-0.2,0-0.2-0.1c-0.2-0.1-0.3-0.4-0.2-0.7c0-0.1,1.2-2.2,2.8-2.5
					c0.6-0.1,1.3,0.1,1.8,0.5c0.2,0.2,0.2,0.5,0.1,0.7c-0.2,0.2-0.5,0.2-0.7,0.1c-0.3-0.3-0.7-0.4-1-0.3c-0.9,0.2-1.8,1.5-2.1,2
					C138.7,334.2,138.6,334.3,138.4,334.3z"/>
			</g>
		</g>
		<g>
			<path class="st5" d="M84.8,327.5c0,0,1.4-3.3-0.5-3.6c-1.9-0.3-2.9,0.9-2.9,0.9l-4.5,5.2l-2.3,3.8l3.6-1.7L84.8,327.5z"/>
			<path class="st14" d="M92.1,325.8c0,0-1.5,3.7-3.1,3.1c-0.9-0.4-2.5-3.3-3.7-2.9c-1.2,0.5-5.7,3.9-7.4,4.8c-1.7,0.9,3.5-6,3.5-6
				s-4.4,4.7-6,5.5c-1.5,0.8-14.5,4.2-14.8,8.3l0.2,2.6c0,0,4.3,3.9,14.3,0.5c10-3.4,15.7-4.1,17.5-4.8
				C94.5,336.1,93.5,325.9,92.1,325.8z"/>
			<path class="st12" d="M73.1,340.3c4.8-0.8,12.7-4.3,15.8-4.7c1.8-0.2,3.5-0.8,4.7-1.3c-0.1,1.4-0.4,2.4-0.9,2.6
				c-1.8,0.7-7.5,1.4-17.5,4.8c-10,3.4-14.3-0.5-14.3-0.5l-0.2-2.6C61.9,340.7,68.3,341.1,73.1,340.3z"/>
			<g>
				<path class="st21" d="M82.2,330.1c-0.2,0-0.3-0.1-0.4-0.3c-0.3-0.5-1.2-1.8-2.1-2c-0.4-0.1-0.7,0-1,0.3
					c-0.2,0.2-0.5,0.1-0.7-0.1c-0.2-0.2-0.1-0.5,0.1-0.7c0.6-0.5,1.2-0.6,1.8-0.5c1.6,0.3,2.7,2.4,2.8,2.5c0.1,0.2,0,0.5-0.2,0.7
					C82.3,330.1,82.2,330.1,82.2,330.1z"/>
			</g>
			<g>
				<path class="st21" d="M80.6,331.6c-0.2,0-0.3-0.1-0.4-0.3c-0.3-0.5-1.2-1.8-2.1-2c-0.4-0.1-0.7,0-1,0.3
					c-0.2,0.2-0.5,0.1-0.7-0.1c-0.2-0.2-0.1-0.5,0.1-0.7c0.6-0.5,1.2-0.6,1.8-0.5c1.6,0.3,2.7,2.4,2.8,2.5c0.1,0.2,0,0.5-0.2,0.7
					C80.8,331.6,80.7,331.6,80.6,331.6z"/>
			</g>
			<g>
				<path class="st21" d="M78.7,332.6c-0.2,0-0.3-0.1-0.4-0.3c-0.3-0.5-1.2-1.8-2.1-2c-0.4-0.1-0.7,0-1,0.3
					c-0.2,0.2-0.5,0.1-0.7-0.1c-0.2-0.2-0.1-0.5,0.1-0.7c0.6-0.5,1.2-0.6,1.8-0.5c1.6,0.3,2.7,2.4,2.8,2.5c0.1,0.2,0,0.5-0.2,0.7
					C78.9,332.6,78.8,332.6,78.7,332.6z"/>
			</g>
			<g>
				<path class="st21" d="M76.7,333.5c-0.2,0-0.3-0.1-0.4-0.3c-0.3-0.5-1.2-1.8-2.1-2c-0.4-0.1-0.7,0-1,0.3
					c-0.2,0.2-0.5,0.1-0.7-0.1c-0.2-0.2-0.1-0.5,0.1-0.7c0.6-0.5,1.2-0.6,1.8-0.5c1.6,0.3,2.7,2.4,2.8,2.5c0.1,0.2,0,0.5-0.2,0.7
					C76.9,333.5,76.8,333.5,76.7,333.5z"/>
			</g>
		</g>
		<polygon class="st22" points="120.3,317.4 130.7,317.4 130.3,323.2 121.1,323.1 		"/>
		<polygon class="st22" points="82.5,314.9 93,314.9 92.5,320.7 83.3,320.6 		"/>
		<path class="st6" d="M94.5,165.8c0,0,40.6-3.6,42.5-0.3c3.7,6.5,3.2,9.6-1.2,11.1c-4.4,1.5-44.2-5.2-44.2-5.2L94.5,165.8z"/>
		<path class="st23" d="M74.4,153.6c2.9-2,4.3-5.5,5.2-8.9c2.1-7.1,3.1-14.5,3-21.9c-2.5-1-5.5-1.5-8-0.5c-2.6,9.9-3.9,20-3.6,30.2
			C71.9,153.2,73.2,153.6,74.4,153.6z"/>
		<path class="st6" d="M105.7,129.9c0.8-0.9,1.6-5.4,2.1-8.6c-3.6-0.6-7.8-1-12.4-1.1l0,0c0,0-0.1,0-0.2,0c-0.2,0-0.2,0-0.2,0l0,0
			c-1.7,0.1-5.6,0.1-9.5,1c-0.1,2-0.3,6.2,0.9,7.7C87.7,130.9,104.4,131.4,105.7,129.9z"/>
		<polygon class="st22" points="96,198.7 84.3,198.5 91.4,262.7 		"/>
		<path class="st6" d="M95.3,108.4L95.3,108.4c-2.8,0-5,2.2-5,5v9.3c0,2.8,2.2,5,5,5h0c2.8,0,5-2.2,5-5v-9.3
			C100.3,110.6,98,108.4,95.3,108.4z"/>
		<path class="st8" d="M95.3,106.4L95.3,106.4c-2.8,0-5,2.2-5,5v6.4c1.6,0.5,3.3,0.7,5,0.7c1.7,0,3.4-0.3,5-0.7v-6.4
			C100.3,108.6,98,106.4,95.3,106.4z"/>
		
			<ellipse transform="matrix(0.7071 -0.7071 0.7071 0.7071 -25.4188 89.4706)" class="st24" cx="95.3" cy="75.4" rx="11.7" ry="11.7"/>
		
			<ellipse transform="matrix(0.7071 -0.7071 0.7071 0.7071 -38.8547 95.0359)" class="st7" cx="95.3" cy="94.4" rx="17.3" ry="17.3"/>
		<circle class="st6" cx="95.3" cy="98.4" r="17.3"/>
		<circle class="st6" cx="78.6" cy="99.4" r="5.2"/>
		<circle class="st6" cx="111.5" cy="99.4" r="5.2"/>
		<path class="st24" d="M78.2,95.3c0,0,12.4-14.9,27-11.4c0,0-8.6-8.6-17.3-4.1C77.2,85.3,78.2,95.3,78.2,95.3z"/>
		<path class="st25" d="M90.4,98.1c0,0.7-0.6,1.3-1.3,1.3c-0.7,0-1.3-0.6-1.3-1.3c0-0.7,0.6-1.3,1.3-1.3
			C89.8,96.9,90.4,97.4,90.4,98.1z"/>
		<path class="st25" d="M102.5,98.1c0,0.7-0.6,1.3-1.3,1.3c-0.7,0-1.3-0.6-1.3-1.3c0-0.7,0.6-1.3,1.3-1.3
			C101.9,96.9,102.5,97.4,102.5,98.1z"/>
		<path class="st26" d="M90.4,92.4c0,0-3.2-0.6-5.6,1.9"/>
		<path class="st26" d="M99.8,92.4c0,0,3.2-0.6,5.6,1.9"/>
		<path class="st26" d="M103,104.8c0,0-3.4,3.5-8.5,2.3"/>
		<path class="st23" d="M48.2,201.3c-1.3,2.8-2.2,5.9-1.8,8.9c0.5,3.5,2.7,6.5,5.5,8.7c1.6,1.3,3.4,2.3,5.4,2.4
			c2.6,0.1,5-1.6,6.5-3.7c5.5-7.9,8-23.5,1.8-31.8c-2.1-2.8-4.5-4.3-7.4-1.7c-2.2,1.9-3.5,5.8-5,8.3
			C51.5,195.3,49.6,198.2,48.2,201.3z"/>
		<path class="st27" d="M49.2,215.4c2.6-5.3,5.2-10.7,7.8-16c2-4.2,4.4-8.9,5.2-13.5c2.4-1.7,5.8-1.4,8.2,0.4
			c2.4,1.7,3.7,4.6,4.2,7.5c0.5,2.9,0.2,5.8-0.2,8.7c-1,7.6-2.5,15.3-6.6,21.8c-4.7,1.8-10.1,1.6-14.3-1.2
			C51,221.5,49.5,218.3,49.2,215.4z"/>
		<path class="st28" d="M67.2,183.5c-2.3-1.8-5.4-2.9-8.2-2.1c-1.2,0.3-2.3,1-3.4,1.7c-3.1,2-6,4.3-8.7,6.8c-0.5,0.4-1,0.9-1.1,1.6
			c-0.1,0.5,0.1,1,0.3,1.4c0.7,1.7,1.5,3.3,2.7,4.8c0.6,0.7,1.2,1.4,2,1.8c0.9,0.4,1.9,0.4,2.9,0.2c2.6-0.5,4.9-2.1,7.1-3.6
			C65.9,192.3,74.7,189.4,67.2,183.5z"/>
		<g>
			<path class="st11" d="M68.5,200.5c-2.5,0-4.6-2.1-4.6-4.6c0-2.5,2.1-4.6,4.6-4.6c2.5,0,4.6,2.1,4.6,4.6
				C73.1,198.4,71,200.5,68.5,200.5z M68.5,192.3c-2,0-3.6,1.6-3.6,3.6c0,2,1.6,3.6,3.6,3.6c2,0,3.6-1.6,3.6-3.6
				C72.1,193.9,70.5,192.3,68.5,192.3z"/>
		</g>
		<path class="st19" d="M49.6,191.8c0,0-2.3,4-1.4,9.5L49,202c0,0,0.8-8.6,1.9-8.8L49.6,191.8z"/>
		<polygon class="st29" points="80.4,122 70.5,194.6 66.5,194.1 77.3,121.7 		"/>
		<circle class="st6" cx="73" cy="143.7" r="6.2"/>
		<path class="st6" d="M68.5,146.1L50.9,166c0,0-6.6,8.1,1,11.3c7.6,3.2,6.6,0.9,9.4-2.5c0.5-0.6,11.4-25.4,11.4-25.4L68.5,146.1z"
			/>
		<path class="st24" d="M105.1,86c1.2,2.6,2.9,4.9,4.7,7.2c0.3,0.4,0.7,0.9,1.1,1.2c0.4,0.3,0.9,0.5,1.4,0.6c0.2-1.8-1-3.5-1.9-5.1
			c-0.7-1.2-1.2-2.5-2.1-3.5c-0.8-0.9-1.8-1.6-2.8-2.2c-0.5-0.3-0.8-0.6-1,0C104.4,84.8,104.9,85.6,105.1,86z"/>
	</g>
	<g>
		<path class="st24" d="M264.6,110.1c-1.5,2-3.3,4-3.6,6.4c-0.2,1.5,0.2,3.1,0.9,4.5c2.5,5.8,8.1,9.9,14.1,11.8
			c6,1.9,12.5,1.8,18.8,0.8c4.3-0.7,8.8-1.8,11.9-4.9c1-1,1.9-2.3,2-3.8c0-0.7-0.1-1.4-0.3-2.1c-1-3.3-3.1-6.1-4.4-9.3
			c-1.7-4.1-1.9-8.5-2.7-12.9c-0.8-4.3-2.1-8.8-5.4-11.7c-3.1-2.8-7.6-3.7-11.6-3c-5.6,1-10.9,5.1-13.6,10.1
			C268.1,100.7,267.7,105.8,264.6,110.1z"/>
		<path class="st7" d="M266.8,131.2c0,0-9.3,11.1-11,20.8c-1.6,9.6-5.2,37.5-1.6,42.6c3.6,5.1,7.7,5.1,8.8,5.1
			c1.1,0,51.8,3.5,51.5-4.6c-0.3-8.1-5.2-61.6-5.2-61.6S287.3,122,266.8,131.2z"/>
		<path class="st11" d="M315.5,144.4c-2.6-4.9-4.9-9.2-6.3-11.8c-0.9-1.6-2.4-2.8-4.2-3.3c-4.8-1.2-14.6-3.5-20.4-3.6
			c-7.9-0.1-16.3,2.1-20,3c-1.5,0.4-2.8,1.2-3.7,2.4c-6.5,8.6-33.7,45.2-28.8,48.4c3.8,2.5,11.6,3.1,11.6,3.1s6.5-10.6,6.5-11.4
			c0-0.5,6.4-11.9,11.1-20.7c-1.8,18-2.6,35.3-2.6,35.3H308c0,0,0.1-13.3-1.4-30.6c0.4,1.4,1.1,3.1,2,5"/>
		<path class="st6" d="M260.2,202.6c0,0,4.7,58.3,6.3,64.3c1.7,6,8.7,58.5,8.7,58.5s3.3,0.5,4.7,0.2c1.3-0.3,4.3-47.7,1-59
			c-1.4-4.9-0.3-59-0.3-59l7.7-0.3l0.7,57c0,0-0.9,15.9-0.7,20c0.7,12,5.3,41.3,5.3,41.3s4.3,1.3,4.7-0.7c0.3-2,4.3-58.3,4.3-58.3
			l4.3-74l-42.7,2L260.2,202.6z"/>
		<g>
			<path class="st6" d="M315.1,144.4c9.8,13.9,22.6,37.5,18.7,37.9c-9.4,0.9-11.6-1.1-11.6-1.1s-2-7.3-4.4-10.8
				c-0.9-1.3-6.6-8.4-10.9-16.1C311.2,152.4,314.1,146.7,315.1,144.4z"/>
		</g>
		<path class="st18" d="M258.7,185.9l-7.3,49.3c0,0,8.3,6.7,37.1,6.7c28.8,0,32.2-7.8,32.2-7.8L308,185.9H258.7z"/>
		<g>
			<path class="st22" d="M274.8,323.2c0,0,1.4-3.1-0.4-3.4c-1.8-0.3-2.7,0.8-2.7,0.8l-4.2,4.9l-2.2,3.6l3.4-1.6L274.8,323.2z"/>
			<path class="st7" d="M281.7,321.6c0,0-1.4,3.5-2.9,2.9c-0.8-0.3-2.4-3.1-3.5-2.7c-1.1,0.4-5.3,3.6-7,4.5
				c-1.6,0.8,3.3-5.6,3.3-5.6s-4.2,4.4-5.6,5.2c-1.4,0.8-13.7,4-13.9,7.8l0.2,2.5c0,0,4,3.6,13.4,0.4c9.4-3.2,14.8-3.8,16.4-4.5
				C284,331.4,283,321.7,281.7,321.6z"/>
			<path class="st12" d="M263.9,335.3c4.5-0.8,12-4.1,14.8-4.4c1.7-0.2,3.3-0.8,4.4-1.2c-0.1,1.3-0.4,2.2-0.9,2.4
				c-1.7,0.7-7,1.3-16.4,4.5c-9.4,3.2-13.4-0.4-13.4-0.4l-0.2-2.5C253.3,335.6,259.4,336,263.9,335.3z"/>
			<g>
				<path class="st21" d="M272.4,325.7c-0.2,0-0.3-0.1-0.4-0.2c-0.3-0.5-1.1-1.7-2-1.8c-0.3-0.1-0.6,0-1,0.3
					c-0.2,0.2-0.5,0.1-0.7-0.1c-0.2-0.2-0.1-0.5,0.1-0.7c0.5-0.4,1.1-0.6,1.7-0.5c1.5,0.3,2.6,2.2,2.6,2.3c0.1,0.2,0,0.5-0.2,0.6
					C272.5,325.7,272.4,325.7,272.4,325.7z"/>
			</g>
			<g>
				<path class="st21" d="M270.9,327.1c-0.2,0-0.3-0.1-0.4-0.2c-0.3-0.5-1.1-1.7-2-1.8c-0.3-0.1-0.6,0-1,0.3
					c-0.2,0.2-0.5,0.1-0.7-0.1c-0.2-0.2-0.1-0.5,0.1-0.7c0.5-0.4,1.1-0.6,1.7-0.5c1.5,0.3,2.6,2.2,2.6,2.3c0.1,0.2,0,0.5-0.2,0.6
					C271.1,327.1,271,327.1,270.9,327.1z"/>
			</g>
			<g>
				<path class="st21" d="M269.1,328c-0.2,0-0.3-0.1-0.4-0.2c-0.3-0.5-1.1-1.7-2-1.8c-0.3-0.1-0.6,0-1,0.3c-0.2,0.2-0.5,0.1-0.7-0.1
					c-0.2-0.2-0.1-0.5,0.1-0.7c0.5-0.4,1.1-0.6,1.7-0.5c1.5,0.3,2.6,2.2,2.6,2.3c0.1,0.2,0,0.5-0.2,0.6
					C269.3,328,269.2,328,269.1,328z"/>
			</g>
			<g>
				<path class="st21" d="M267.3,328.9c-0.2,0-0.3-0.1-0.4-0.2c-0.3-0.5-1.1-1.7-2-1.8c-0.3-0.1-0.6,0-1,0.3
					c-0.2,0.2-0.5,0.1-0.7-0.1c-0.2-0.2-0.1-0.5,0.1-0.7c0.5-0.4,1.1-0.6,1.7-0.5c1.5,0.3,2.6,2.2,2.6,2.3c0.1,0.2,0,0.5-0.2,0.6
					C267.4,328.8,267.4,328.9,267.3,328.9z"/>
			</g>
		</g>
		<g>
			<path class="st22" d="M302.3,323.2c-0.5-0.9-1.4-1.5-2.5-1.4c-0.6,0-1.2,0.1-1.6,0.3c-1.1,0.5-1.1,2.9-0.7,3.4
				c0.4,0.5,5.2,8.5,5.2,8.5s4.8-1.6,4.7-2.2c-0.1-0.6-4-6.4-4-6.4S302.8,324.2,302.3,323.2z"/>
			<path class="st7" d="M293.3,324.4c0,0-1.6,5.7-1,8.6c0,0-0.1,0.8,2.8,2.1c2.9,1.3,4.7,6.5,13,5.7c8.3-0.8,7.4-2,7.4-2
				s1-6.3-6.8-8.9c-3.8-1.3-5.7-6.1-5.7-6.1s-1.4-0.6-1.1,0.6c0.3,1.2,4.7,6.5,4.7,6.5l-1.4,0.3c0,0-3.7-6.9-5.3-7.1
				c-1.6-0.2-3.7,2.1-4.9,1.7C293.7,325.5,293.3,324.4,293.3,324.4z"/>
			<path class="st12" d="M308.1,340.8c8.3-0.8,7.4-2,7.4-2s0.1-1-0.1-2.3c-0.9,0.6-3.5,2.1-8.9,2.2c-6.9,0.1-7-3.9-10-4.9
				c-2-0.6-3.6-1.8-4.4-2.4c0,0.6,0,1.1,0.1,1.6c0,0-0.1,0.8,2.8,2.1C298,336.4,299.8,341.7,308.1,340.8z"/>
			<g>
				<path class="st12" d="M299.8,326.8c-0.1,0-0.3,0-0.4-0.1c-0.2-0.2-0.3-0.6-0.1-0.8c0.1-0.1,1.4-1.6,2.9-1.7
					c0.7,0,1.3,0.2,1.8,0.7c0.2,0.2,0.2,0.6,0,0.8c-0.2,0.2-0.6,0.2-0.8,0c-0.3-0.3-0.6-0.4-0.9-0.4c-0.9,0-1.8,1-2.1,1.3
					C300.1,326.8,300,326.8,299.8,326.8z"/>
			</g>
			<g>
				<path class="st12" d="M301,328.7c-0.1,0-0.3,0-0.4-0.1c-0.2-0.2-0.3-0.6-0.1-0.8c0.1-0.1,1.4-1.6,2.9-1.7c0.7,0,1.3,0.2,1.8,0.7
					c0.2,0.2,0.2,0.6,0,0.8c-0.2,0.2-0.6,0.2-0.8,0c-0.3-0.3-0.6-0.4-0.9-0.4c-0.9,0-1.8,1-2.1,1.3
					C301.3,328.7,301.1,328.7,301,328.7z"/>
			</g>
			<g>
				<path class="st12" d="M302.7,330.3c-0.1,0-0.3,0-0.4-0.1c-0.2-0.2-0.3-0.6-0.1-0.8c0.1-0.1,1.4-1.6,2.9-1.7
					c0.7,0,1.3,0.2,1.8,0.7c0.2,0.2,0.2,0.6,0,0.8c-0.2,0.2-0.6,0.2-0.8,0c-0.3-0.3-0.6-0.4-0.9-0.4c-0.9,0-1.8,1-2.1,1.3
					C303,330.2,302.8,330.3,302.7,330.3z"/>
			</g>
			<g>
				<path class="st12" d="M304.1,332c-0.1,0-0.3,0-0.4-0.1c-0.2-0.2-0.3-0.6-0.1-0.8c0.1-0.1,1.4-1.6,2.9-1.7c0.7,0,1.3,0.2,1.8,0.7
					c0.2,0.2,0.2,0.6,0,0.8c-0.2,0.2-0.6,0.2-0.8,0c-0.3-0.3-0.6-0.4-0.9-0.4c-0.9,0-1.8,1-2.1,1.3C304.4,332,304.3,332,304.1,332z"
					/>
			</g>
		</g>
		<path class="st5" d="M307.2,175.8c-2.9-2-7.8-23.5-8.8-26.9c-2.1-7.1-2.9-15.8-2.8-23.2c2.5-1,5.3-0.2,7.9,0.8
			c2.6,9.9,7.5,37.9,7.2,48.1C309.7,175.4,308.4,175.8,307.2,175.8z"/>
		<g>
			<polygon class="st30" points="297.8,148.7 294.3,145.6 269.8,142.4 263.9,177.1 289.5,180.3 			"/>
			<path class="st12" d="M296.6,149.3c0,0-2-2.5-2.3-2.5c-0.2,0-23.7-3.3-23.7-3.3l-5.6,32.9l3,2.4l23.4,1.6L296.6,149.3z"/>
			
				<rect x="269.4" y="146.7" transform="matrix(-0.9899 -0.1415 0.1415 -0.9899 538.7758 366.3976)" class="st30" width="26.1" height="34.7"/>
			<polygon class="st7" points="302.8,154.2 299.3,151.1 274.8,147.9 268.9,182.6 294.5,185.8 			"/>
			<path class="st12" d="M301.6,154.8c0,0-2-2.5-2.3-2.5c-0.2,0-23.7-3.3-23.7-3.3l-5.6,32.9l3,2.4l23.4,1.6L301.6,154.8z"/>
			
				<rect x="274.4" y="152.2" transform="matrix(-0.9899 -0.1415 0.1415 -0.9899 547.9065 378.0839)" class="st7" width="26.1" height="34.7"/>
		</g>
		<path class="st6" d="M284.3,114.4L284.3,114.4c2.8,0,5,2.2,5,5v9.3c0,2.8-2.2,5-5,5l0,0c-2.8,0-5-2.2-5-5v-9.3
			C279.3,116.6,281.5,114.4,284.3,114.4z"/>
		<path class="st8" d="M284.3,112.4L284.3,112.4c2.8,0,5,2.2,5,5v6.4c-1.6,0.5-3.3,0.7-5,0.7s-3.4-0.3-5-0.7v-6.4
			C279.3,114.6,281.5,112.4,284.3,112.4z"/>
		<circle class="st24" cx="284.3" cy="100.4" r="17.3"/>
		
			<ellipse transform="matrix(0.9872 -0.1593 0.1593 0.9872 -12.9951 46.6278)" class="st6" cx="284.3" cy="104.4" rx="17.3" ry="17.3"/>
		<path class="st6" d="M295.8,105.4c0,2.9,2.3,5.2,5.2,5.2c2.9,0,5.2-2.3,5.2-5.2s-2.3-5.2-5.2-5.2
			C298.1,100.1,295.8,102.5,295.8,105.4z"/>
		<circle class="st6" cx="268.1" cy="105.4" r="5.2"/>
		<path class="st5" d="M289.2,104.1c0,0.7,0.6,1.3,1.3,1.3c0.7,0,1.3-0.6,1.3-1.3c0-0.7-0.6-1.3-1.3-1.3
			C289.8,102.8,289.2,103.4,289.2,104.1z"/>
		<path class="st5" d="M277.1,104.1c0,0.7,0.6,1.3,1.3,1.3c0.7,0,1.3-0.6,1.3-1.3c0-0.7-0.6-1.3-1.3-1.3
			C277.7,102.8,277.1,103.4,277.1,104.1z"/>
		<g>
			<path class="st24" d="M294.5,100.5c-2.2-2.4-5.3-1.8-5.3-1.8l-0.1-0.7c0.1,0,3.5-0.7,6,2L294.5,100.5z"/>
		</g>
		<g>
			<path class="st24" d="M274.5,100.5l-0.5-0.5c2.5-2.7,5.8-2.1,6-2l-0.1,0.7C279.6,98.7,276.7,98.1,274.5,100.5z"/>
		</g>
		<path class="st6" d="M284.2,162.3c1.6,3,5.3,4.2,8.3,2.7c3-1.6,4.2-5.3,2.7-8.3c-1.6-3-5.3-4.2-8.3-2.7
			C283.8,155.6,282.6,159.3,284.2,162.3z"/>
		<g>
			<path class="st6" d="M250.6,145.2c-9.8,13.9-21.8,32.1-18.5,34.3c3.8,2.5,11.6,3.1,11.6,3.1s6.5-10.6,6.5-11.4
				c0-0.4,4.4-8.4,8.7-16.1C254.5,153.2,251.7,147.6,250.6,145.2z"/>
		</g>
		<path class="st5" d="M257.8,175.8c2.9-2,7.8-23.5,8.8-26.9c2.1-7.1,2.9-15.8,2.8-23.2c-2.5-1-5.3-0.2-7.9,0.8
			c-2.6,9.9-7.5,37.9-7.2,48.1C255.4,175.4,256.6,175.8,257.8,175.8z"/>
		<path class="st6" d="M285.1,171.8c0,0-40.6-3.6-42.5-0.3c-3.7,6.5-3.2,9.6,1.2,11.1c4.4,1.5,44.2-5.2,44.2-5.2L285.1,171.8z"/>
		<circle class="st6" cx="282.4" cy="174.1" r="6.7"/>
		<path class="st6" d="M288.6,156.9c0,0,39.2,11.2,39.8,15c1.1,7.4-0.5,10-5.1,9.9s-39.4-20.7-39.4-20.7L288.6,156.9z"/>
		<path class="st24" d="M285,91.5c-1.1,1.8-2.6,3.3-4.3,4.7c-3.9,3.3-8.8,6-13.8,5.4c0.1-2.3,0.3-4.7,1.2-6.8
			c1.4-3.3,4.3-5.8,7.5-7.2c2.3-1,6.7-2.7,9.2-2C287.8,86.4,286.1,89.7,285,91.5z"/>
		<g>
			<path class="st15" d="M278.6,110.4c0.4,2.9,2.9,5,5.9,5s5.4-2.2,5.9-5H278.6z"/>
			<path class="st12" d="M278.6,110.4c0.1,0.7,0.3,1.3,0.7,1.9h8.1c0.8,0,1.4-0.6,1.4-1.4v-0.5H278.6z"/>
		</g>
	</g>
	<g>
		<polygon class="st6" points="360.8,298.2 360.9,324.5 359.7,327.4 352.1,329.5 352.1,292.6 		"/>
		<polygon class="st6" points="383.3,301.7 385.2,324.2 391.2,323.1 392.3,300.2 		"/>
		<path class="st5" d="M398.6,182.7l-6.3,122.8l-8.8,0.5l-5-111.3l-10,0.5c0,0-4.6,66.4-4.3,67.4c0.3,1-3,43.9-3,43.9l-10-0.2
			l-3.3-44.5l0.4-78.3L398.6,182.7z"/>
		<polygon class="st31" points="363.1,300.9 349.8,301.1 350.4,306.9 362.3,306.6 		"/>
		<polygon class="st31" points="394.3,300.2 380.8,300.4 381.4,306.2 393.5,306 		"/>
		<path class="st31" d="M398,194.6l-0.1,0c-4.9-1.7-8.1-6.6-7.7-11.8l0,0l8.5-0.1L398,194.6z"/>
		<path class="st31" d="M348.3,183.5l10.4-0.2l0.5,10c-0.7,2.4-2.1,4.5-4,6.2c-1.6,1.4-5.4,2.6-7.1,0L348.3,183.5z"/>
		<path class="st16" d="M419.8,196.8c1.3,2.8,2.2,5.9,1.8,8.9c-0.5,3.5-2.7,6.5-5.5,8.7c-1.6,1.3-3.4,2.3-5.4,2.4
			c-2.6,0.1-5-1.6-6.5-3.7c-5.5-7.9-8-23.5-1.8-31.8c2.1-2.8,4.5-4.3,7.4-1.7c2.2,1.9,3.5,5.8,5,8.3
			C416.5,190.8,418.4,193.7,419.8,196.8z"/>
		<path class="st9" d="M418.9,210.9c-2.6-5.3-5.2-10.7-7.8-16c-2-4.2-4.4-8.9-5.2-13.5c-2.4-1.7-5.8-1.4-8.2,0.4
			c-2.4,1.7-3.7,4.6-4.2,7.5c-0.5,2.9-0.2,5.8,0.2,8.7c1,7.6,2.5,15.3,6.6,21.8c4.7,1.8,10.1,1.6,14.3-1.2
			C417.1,217,418.5,213.7,418.9,210.9z"/>
		<path class="st13" d="M400.8,178.9c2.3-1.8,5.4-2.9,8.2-2.1c1.2,0.3,2.3,1,3.4,1.7c3.1,2,6,4.3,8.7,6.8c0.5,0.4,1,0.9,1.1,1.6
			c0.1,0.5-0.1,1-0.3,1.4c-0.7,1.7-1.5,3.3-2.7,4.8c-0.6,0.7-1.2,1.4-2,1.8c-0.9,0.4-1.9,0.4-2.9,0.2c-2.6-0.5-4.9-2.1-7.1-3.6
			C402.2,187.7,393.3,184.9,400.8,178.9z"/>
		<g>
			<path class="st21" d="M395,191.3c0-2.5,2.1-4.6,4.6-4.6c2.5,0,4.6,2.1,4.6,4.6c0,2.5-2.1,4.6-4.6,4.6
				C397,195.9,395,193.9,395,191.3z M396,191.3c0,2,1.6,3.6,3.6,3.6c2,0,3.6-1.6,3.6-3.6c0-2-1.6-3.6-3.6-3.6
				C397.6,187.8,396,189.4,396,191.3z"/>
		</g>
		<path class="st5" d="M418.4,187.3c0,0,2.3,4,1.4,9.5l-0.8,0.7c0,0-0.8-8.6-1.9-8.8L418.4,187.3z"/>
		<path class="st12" d="M349.2,119.2c3.6-0.9,15.3-2.8,23.8-3l0,0c0,0,0.1,0,0.2,0c0.2,0,0.2,0,0.2,0l0,0c3.1,0.2,14.5-0.1,18.2,5.8
			c4.1,6.6,7,60.7,7,60.7l-50.3,0.8C348.3,183.5,347.8,119.6,349.2,119.2z"/>
		<path class="st8" d="M392.3,120.1c0,0,23.6,31.5,26.2,39.4c2.6,7.9,3.4,10.2-2.3,13.1c-6.4,3.2-10.4-4.3-11.9-9.7
			c-2.4-8.6-8.5-22.2-8.9-23.3C394.9,138.1,392.3,120.1,392.3,120.1z"/>
		<path class="st7" d="M407,137.8l-11.7,15.1l-12.1-35.7c0,0,12.8-0.2,15.7,4.2C401.2,125.1,405.8,131.2,407,137.8z"/>
		<path class="st6" d="M360.6,117.5c3.5-0.6,7.8-1.2,12.4-1.3l0,0c0,0,0.1,0,0.2,0c0.2,0,0.2,0,0.2,0l0,0c1.7,0.1,5.6,0.1,9.5,0.9
			c0,0.4-0.3,1-0.8,1.9c-4.8,7.8-16.3,7.9-20.9,0C360.9,118.4,360.7,117.9,360.6,117.5z"/>
		<path class="st6" d="M372.8,104.4L372.8,104.4c2.8,0,5,2.2,5.1,4.9l0.1,9.3c0,2.8-2.2,5-4.9,5.1h0c-2.8,0-5-2.2-5.1-4.9l-0.1-9.3
			C367.9,106.7,370.1,104.5,372.8,104.4z"/>
		<path class="st8" d="M372.8,101.4L372.8,101.4c2.8,0,5,2.2,5.1,4.9l0.1,6.4c-1.6,0.5-3.2,0.8-5,0.8s-3.4-0.2-5-0.7l-0.1-6.4
			C367.8,103.7,370,101.5,372.8,101.4z"/>
		<ellipse transform="matrix(0.9341 -0.357 0.357 0.9341 -8.794 139.1894)" class="st6" cx="372.7" cy="93.4" rx="17.3" ry="17.3"/>
		<path class="st6" d="M384.1,94.2c0,2.9,2.4,5.2,5.3,5.1c2.9,0,5.2-2.4,5.1-5.3c0-2.9-2.4-5.2-5.3-5.1
			C386.4,89,384.1,91.4,384.1,94.2z"/>
		<path class="st6" d="M351.3,94.7c0,2.9,2.4,5.2,5.3,5.1c2.9,0,5.2-2.4,5.1-5.3c0-2.9-2.4-5.2-5.3-5.1
			C353.5,89.5,351.2,91.9,351.3,94.7z"/>
		<path class="st5" d="M377.6,95.1c0,0.7,0.6,1.3,1.3,1.3c0.7,0,1.3-0.6,1.3-1.3c0-0.7-0.6-1.3-1.3-1.3
			C378.1,93.8,377.6,94.4,377.6,95.1z"/>
		<path class="st5" d="M365.5,95.3c0,0.7,0.6,1.3,1.3,1.3c0.7,0,1.3-0.6,1.3-1.3c0-0.7-0.6-1.3-1.3-1.3
			C366,94,365.5,94.5,365.5,95.3z"/>
		<g>
			<path class="st32" d="M382.8,91.5l0.7-0.7c-2.6-2.7-6-2-6.1-2l0.2,1C377.7,89.8,380.6,89.2,382.8,91.5z"/>
		</g>
		<g>
			<path class="st32" d="M362.9,91.8c2.2-2.4,5-1.9,5.2-1.9l0.2-1c-0.1,0-3.5-0.6-6.1,2.2L362.9,91.8z"/>
		</g>
		<path class="st7" d="M334.9,139.3l12.2,14.8l11-36.1c0,0-12.8,0.2-15.5,4.7C340.3,126.5,335.9,132.7,334.9,139.3z"/>
		<polygon class="st5" points="387.7,116.6 397.5,190 401.5,189.5 390.7,116.7 		"/>
		<path class="st6" d="M389.4,138.8c0.1,3.4,2.9,6.2,6.3,6.1c3.4-0.1,6.2-2.9,6.1-6.3c-0.1-3.4-2.9-6.2-6.3-6.1
			C392.1,132.6,389.4,135.4,389.4,138.8z"/>
		<path class="st6" d="M400.2,141.7l17.9,19.6c0,0,7.8,10.1,0.4,13.9c-5.3,2.7-9.7-2.8-12.6-6.1c-0.5-0.6-9.9-23.9-9.9-23.9
			L400.2,141.7z"/>
		<path class="st6" d="M335.8,140.2c0,0-5.7,19.9-6,26.2c-0.3,6.3,20.1,34.2,20.1,34.2l0,0c3.8,1.7,8.1-0.9,8.4-5l0-0.1l-14.5-24.6
			l5.1-25.9L335.8,140.2z"/>
		<g>
			<path class="st5" d="M392.2,322.9c0,0-1.5-3.3,0.4-3.6c1.9-0.3,2.9,0.9,2.9,0.9l4.6,5.2l2.4,3.7l-3.6-1.7L392.2,322.9z"/>
			<path class="st14" d="M384.9,321.4c0,0,1.5,3.7,3.1,3c0.9-0.4,2.5-3.4,3.6-3c1.2,0.4,5.8,3.8,7.5,4.7c1.7,0.9-3.6-5.9-3.6-5.9
				s4.5,4.6,6.1,5.4c1.5,0.8,14.6,4,14.9,8l-0.2,2.6c0,0-4.2,4-14.3,0.7c-10.1-3.3-15.8-3.8-17.6-4.5
				C382.7,331.8,383.5,321.5,384.9,321.4z"/>
			<path class="st12" d="M404.1,335.6c-4.8-0.7-12.8-4.1-15.9-4.4c-1.8-0.2-3.5-0.8-4.7-1.2c0.1,1.3,0.4,2.4,1,2.6
				c1.8,0.7,7.5,1.2,17.6,4.5c10.1,3.3,14.3-0.7,14.3-0.7l0.2-2.6C415.4,335.7,408.9,336.3,404.1,335.6z"/>
			<g>
				<path class="st21" d="M394.9,325.6c-0.1,0-0.2,0-0.2-0.1c-0.2-0.1-0.3-0.4-0.2-0.7c0-0.1,1.2-2.2,2.8-2.5c0.6-0.1,1.3,0,1.8,0.5
					c0.2,0.2,0.3,0.5,0.1,0.7c-0.2,0.2-0.5,0.3-0.7,0.1c-0.3-0.3-0.7-0.4-1-0.3c-0.9,0.2-1.8,1.5-2.1,2
					C395.3,325.5,395.1,325.6,394.9,325.6z"/>
			</g>
			<g>
				<path class="st21" d="M396.5,327c-0.1,0-0.2,0-0.2-0.1c-0.2-0.1-0.3-0.4-0.2-0.7c0-0.1,1.2-2.2,2.8-2.5c0.6-0.1,1.3,0,1.8,0.5
					c0.2,0.2,0.3,0.5,0.1,0.7c-0.2,0.2-0.5,0.3-0.7,0.1c-0.3-0.3-0.7-0.4-1-0.3c-0.9,0.2-1.8,1.5-2.1,2
					C396.8,326.9,396.6,327,396.5,327z"/>
			</g>
			<g>
				<path class="st21" d="M398.4,327.9c-0.1,0-0.2,0-0.2-0.1c-0.2-0.1-0.3-0.4-0.2-0.7c0-0.1,1.2-2.2,2.8-2.5c0.6-0.1,1.3,0,1.8,0.5
					c0.2,0.2,0.3,0.5,0.1,0.7c-0.2,0.2-0.5,0.3-0.7,0.1c-0.3-0.3-0.7-0.4-1-0.3c-0.9,0.2-1.8,1.5-2.1,2
					C398.7,327.8,398.6,327.9,398.4,327.9z"/>
			</g>
			<g>
				<path class="st21" d="M400.4,328.8c-0.1,0-0.2,0-0.2-0.1c-0.2-0.1-0.3-0.4-0.2-0.7c0-0.1,1.2-2.2,2.8-2.5c0.6-0.1,1.3,0,1.8,0.5
					c0.2,0.2,0.3,0.5,0.1,0.7c-0.2,0.2-0.5,0.3-0.7,0.1c-0.3-0.3-0.7-0.4-1-0.3c-0.9,0.2-1.8,1.5-2.1,2
					C400.7,328.7,400.6,328.8,400.4,328.8z"/>
			</g>
		</g>
		<g>
			<path class="st5" d="M353.1,326.2c0,0,1.4-3.3-0.5-3.6c-1.9-0.3-2.9,0.9-2.9,0.9l-4.5,5.2l-2.3,3.8l3.6-1.7L353.1,326.2z"/>
			<path class="st14" d="M360.4,324.5c0,0-1.5,3.7-3.1,3.1c-0.9-0.4-2.5-3.3-3.7-2.9c-1.2,0.5-5.7,3.9-7.4,4.8c-1.7,0.9,3.5-6,3.5-6
				s-4.4,4.7-6,5.5c-1.5,0.8-14.5,4.2-14.8,8.3l0.2,2.6c0,0,4.3,3.9,14.3,0.5c10-3.4,15.7-4.1,17.5-4.8S361.9,324.6,360.4,324.5z"/>
			<path class="st12" d="M341.5,339c4.8-0.8,12.7-4.3,15.8-4.7c1.8-0.2,3.5-0.8,4.7-1.3c-0.1,1.4-0.4,2.4-0.9,2.6
				c-1.8,0.7-7.5,1.4-17.5,4.8c-10,3.4-14.3-0.5-14.3-0.5l-0.2-2.6C330.2,339.4,336.7,339.8,341.5,339z"/>
			<g>
				<path class="st21" d="M350.5,328.9c-0.2,0-0.3-0.1-0.4-0.3c-0.3-0.5-1.2-1.8-2.1-2c-0.4-0.1-0.7,0-1,0.3
					c-0.2,0.2-0.5,0.1-0.7-0.1c-0.2-0.2-0.1-0.5,0.1-0.7c0.6-0.5,1.2-0.6,1.8-0.5c1.6,0.3,2.7,2.4,2.8,2.5c0.1,0.2,0,0.5-0.2,0.7
					C350.7,328.9,350.6,328.9,350.5,328.9z"/>
			</g>
			<g>
				<path class="st21" d="M349,330.3c-0.2,0-0.3-0.1-0.4-0.3c-0.3-0.5-1.2-1.8-2.1-2c-0.4-0.1-0.7,0-1,0.3c-0.2,0.2-0.5,0.1-0.7-0.1
					c-0.2-0.2-0.1-0.5,0.1-0.7c0.6-0.5,1.2-0.6,1.8-0.5c1.6,0.3,2.7,2.4,2.8,2.5c0.1,0.2,0,0.5-0.2,0.7
					C349.1,330.3,349.1,330.3,349,330.3z"/>
			</g>
			<g>
				<path class="st21" d="M347.1,331.3c-0.2,0-0.3-0.1-0.4-0.3c-0.3-0.5-1.2-1.8-2.1-2c-0.4-0.1-0.7,0-1,0.3
					c-0.2,0.2-0.5,0.1-0.7-0.1c-0.2-0.2-0.1-0.5,0.1-0.7c0.6-0.5,1.2-0.6,1.8-0.5c1.6,0.3,2.7,2.4,2.8,2.5c0.1,0.2,0,0.5-0.2,0.7
					C347.3,331.3,347.2,331.3,347.1,331.3z"/>
			</g>
			<g>
				<path class="st21" d="M345.1,332.2c-0.2,0-0.3-0.1-0.4-0.3c-0.3-0.5-1.2-1.8-2.1-2c-0.4-0.1-0.7,0-1,0.3
					c-0.2,0.2-0.5,0.1-0.7-0.1c-0.2-0.2-0.1-0.5,0.1-0.7c0.6-0.5,1.2-0.6,1.8-0.5c1.6,0.3,2.7,2.4,2.8,2.5c0.1,0.2,0,0.5-0.2,0.7
					C345.3,332.2,345.2,332.2,345.1,332.2z"/>
			</g>
		</g>
		<g>
			<path class="st33" d="M372.8,103.8c-0.7,0-1.4-0.1-2.1-0.2l0.2-0.7c4.8,1.1,8.1-2.2,8.1-2.2l0.5,0.5
				C379.4,101.2,376.9,103.8,372.8,103.8z"/>
		</g>
		<g>
			<path class="st5" d="M366.2,100.7c-3.1,0-5.5-2.5-5.5-5.5c0-3.1,2.5-5.5,5.5-5.5c3.1,0,5.5,2.5,5.5,5.5
				C371.7,98.2,369.2,100.7,366.2,100.7z M366.2,90.6c-2.5,0-4.5,2-4.5,4.5s2,4.5,4.5,4.5c2.5,0,4.5-2,4.5-4.5
				S368.7,90.6,366.2,90.6z"/>
		</g>
		<g>
			<path class="st5" d="M379.1,100.7c-3.1,0-5.5-2.5-5.5-5.5c0-3.1,2.5-5.5,5.5-5.5c3.1,0,5.5,2.5,5.5,5.5
				C384.6,98.2,382.2,100.7,379.1,100.7z M379.1,90.6c-2.5,0-4.5,2-4.5,4.5s2,4.5,4.5,4.5c2.5,0,4.5-2,4.5-4.5
				S381.6,90.6,379.1,90.6z"/>
		</g>
		<g>
			<rect x="357.9" y="88.8" transform="matrix(0.6156 -0.788 0.788 0.6156 65.0373 317.918)" class="st5" width="1" height="7.1"/>
		</g>
		<g>
			<rect x="383.2" y="91.6" transform="matrix(0.788 -0.6156 0.6156 0.788 25.2664 257.617)" class="st5" width="7.1" height="1"/>
		</g>
		<path class="st32" d="M377.1,71.9c-2.6-0.6-5.2-1.2-7.9-1.4c-1.4-0.1-2.9,0-3.9,0.9c-1,1-0.5,3.1,0.8,3.1
			c-4.2-0.3-8.8-0.4-12.3,1.9c-0.4,0.3-0.8,0.6-1,1c-0.4,0.9,0.1,2,1,2.5c0.8,0.5,1.9,0.6,2.8,0.7c-2.4,0.9-5.2,2.5-5.1,5
			c0.1,2,2.5,3.5,4.3,2.7c-0.6,0.6-1.2,1.2-1.5,2.1c-0.2,0.8,0.1,1.9,0.9,2.2c0.7,0.3,1.4-0.1,2-0.4c3.5-1.9,6.6-4.3,9.4-7.1
			c-0.8,0.8-1.3,1.9-1.4,3c0,0.4-0.1,0.7,0.1,1c0.5,0.8,1.7,0.4,2.4-0.1c2.9-1.8,5.5-4.3,7.4-7.1c0,1,0.1,2.1,0.1,3.1
			c0,0.3,0,0.7,0.3,0.8c0.2,0.2,0.5,0.1,0.8,0.1c3.7-0.8,6.7-3.9,7.7-7.5C385.3,74.1,380.7,72.7,377.1,71.9z"/>
		<path class="st32" d="M387.4,79.3c0.4,0.7,0.4,1.5,0.8,2.1c0.6,1.1,1.7,1.6,2.7,2.3c1,0.7,1.7,2,1.1,3c-0.6,0.9-1.9,0.9-3,0.7
			c0.7,1.2,1.4,2.4,1.3,3.8c-0.1,1.4-1.4,2.7-2.7,2.3c-1.6-1.9-2.4-4.4-2.4-6.8c-0.1,1-1.2,1.6-2.2,1.4c-1-0.2-1.7-0.9-2.3-1.7
			C377.2,81.1,384.3,73.5,387.4,79.3z"/>
		<g>
			<path class="st5" d="M374.5,96.1h-1c0-0.5-0.4-0.9-0.9-0.9c-0.5,0-0.9,0.4-0.9,0.9h-1c0-1.1,0.9-1.9,1.9-1.9S374.5,95,374.5,96.1
				z"/>
		</g>
	</g>
</g>
<g id="DESIGNED_BY_FREEPIK" class="st0">
	<g class="st34">
		<g id="XMLID_319_">
			<g id="XMLID_338_">
				<path id="XMLID_346_" class="st35" d="M248.5,416.5c-0.4,0.4-0.8,0.9-1.1,1.5l-0.5-0.2c-0.1-0.3-0.3-0.5-0.7-0.5
					c-0.3,0-0.6,0.3-0.5,0.7c0,0.3,0.3,0.6,0.7,0.5c0.1,0,0.1,0,0.2-0.1l0.5,0.2c-0.3,0.6-0.4,1.1-0.5,1.7l0.7,0.1
					c0.2-1.3,0.8-2.5,1.8-3.5L248.5,416.5z"/>
				<path id="XMLID_345_" class="st35" d="M254,414.2c-0.2,0-0.3,0-0.5,0l-0.1-0.6c0.2-0.1,0.3-0.4,0.3-0.6c0-0.4-0.4-0.7-0.8-0.6
					c-0.4,0-0.7,0.4-0.6,0.8c0,0.3,0.2,0.5,0.4,0.6l0.1,0.6c-0.7,0.1-1.4,0.3-2.1,0.6l0.3,0.7c0.9-0.4,1.9-0.7,3-0.7
					c0.5,0,1,0.1,1.5,0.2l0.2-0.7C255.1,414.3,254.5,414.2,254,414.2z"/>
				<path id="XMLID_344_" class="st35" d="M260.6,416.8c0.3,0,0.6-0.3,0.5-0.7c0-0.3-0.3-0.6-0.7-0.5c-0.3,0-0.5,0.3-0.5,0.6
					l-0.4,0.4c-0.4-0.4-0.9-0.8-1.4-1.1l-0.4,0.6c1.1,0.7,2,1.7,2.6,2.9l0.7-0.3c-0.3-0.6-0.6-1.1-0.9-1.5l0.4-0.4
					C260.5,416.8,260.5,416.8,260.6,416.8z"/>
				<path id="XMLID_343_" class="st35" d="M253.5,424.4c-0.4,0-0.8,0-1.2,0c-0.9,0-1.7-0.1-2.5-0.2c-0.4-0.1-0.8-0.2-1.3-0.3
					c1,1.9,3.1,3.1,5.4,3.1c2.9,0,5.3-1.9,5.9-4.5c-0.7,0.4-1.5,0.8-2.5,1.1C256.2,424.1,254.9,424.4,253.5,424.4z"/>
				<path id="XMLID_339_" class="st35" d="M254,415.8c-3.4,0-6.1,2.7-6.1,5.9c0,0.4,0,0.8,0.1,1.3c0.7,0.5,2.7,0.9,5.3,0.7
					c2.9-0.2,5.3-1,6.7-2.2c0-0.2,0-0.4,0-0.6C259.7,418,257.1,415.8,254,415.8z M251.8,422.3c-1,0-1.8-0.8-1.8-1.8
					c0-1,0.8-1.8,1.8-1.8c1,0,1.8,0.8,1.8,1.8C253.7,421.4,252.9,422.3,251.8,422.3z M256.6,421.4c-0.8,0-1.4-0.6-1.4-1.4
					s0.6-1.4,1.4-1.4c0.8,0,1.4,0.6,1.4,1.4S257.3,421.4,256.6,421.4z"/>
			</g>
			<path id="XMLID_336_" class="st35" d="M270,417.6c-0.3-0.1-0.8-0.3-1.4-0.2c-0.6,0.1-0.8,0.3-0.8,1v0.9h2.2v1.7h-2.2v5.5h-1.9
				V421h-1.3v-1.7h1.3v-0.9c0-1.7,0.9-2.8,2.6-2.8c0.6,0,1.2,0.1,1.6,0.3L270,417.6z"/>
			<path id="XMLID_334_" class="st35" d="M274.7,421c-0.2,0-0.4,0-0.5,0c-0.9,0-1.5,0.5-1.5,1.6v3.9h-1.9v-7.2h1.9v0.8
				c0.5-0.7,1.1-1,2-1c0.4,0,0.8,0.1,1.1,0.3L274.7,421z"/>
			<path id="XMLID_331_" class="st35" d="M282.4,422.8c0,0.2,0,0.5,0,0.7h-5.1c0.2,1,0.9,1.5,1.8,1.5c0.6,0,1.3-0.3,1.8-0.7l1.1,1.2
				c-0.8,0.7-1.9,1.1-3.1,1.1c-2.2,0-3.7-1.5-3.7-3.8c0-2.3,1.5-3.8,3.6-3.8C281,419.1,282.4,420.6,282.4,422.8z M277.3,422.2h3.2
				c-0.2-0.9-0.7-1.4-1.6-1.4C278,420.7,277.4,421.3,277.3,422.2z"/>
			<path id="XMLID_328_" class="st35" d="M290,422.8c0,0.2,0,0.5,0,0.7h-5.1c0.2,1,0.9,1.5,1.8,1.5c0.6,0,1.3-0.3,1.8-0.7l1.1,1.2
				c-0.8,0.7-1.9,1.1-3.1,1.1c-2.2,0-3.7-1.5-3.7-3.8c0-2.3,1.5-3.8,3.6-3.8C288.6,419.1,290,420.6,290,422.8z M284.9,422.2h3.2
				c-0.2-0.9-0.7-1.4-1.6-1.4C285.6,420.7,285.1,421.3,284.9,422.2z"/>
			<path id="XMLID_325_" class="st35" d="M298.4,422.8c0,2.2-1.5,3.8-3.5,3.8c-1,0-1.6-0.4-2.1-0.9v3.7h-1.9v-10.1h1.9v0.8
				c0.5-0.6,1.2-1,2.1-1C296.9,419.1,298.4,420.7,298.4,422.8z M292.7,422.8c0,1.1,0.7,2,1.8,2c1.1,0,1.9-0.9,1.9-2
				c0-1.1-0.7-2-1.9-2C293.4,420.9,292.7,421.7,292.7,422.8z"/>
			<path id="XMLID_322_" class="st35" d="M301.5,416.9c0,0.7-0.5,1.2-1.2,1.2c-0.7,0-1.2-0.5-1.2-1.2c0-0.7,0.5-1.2,1.2-1.2
				C300.9,415.7,301.5,416.2,301.5,416.9z M301.2,426.4h-1.9v-7.2h1.9V426.4z"/>
			<path id="XMLID_320_" class="st35" d="M304.4,421.8l2.7-2.6h2.4l-3.5,3.4l3.5,3.8h-2.4l-2.7-2.9v2.9h-1.9v-10.7h1.9V421.8z"/>
		</g>
		<g>
			<path class="st35" d="M172.8,426.4v-1.1c-0.5,0.7-1.4,1.2-2.4,1.2c-1.8,0-3.1-1.4-3.1-3.7c0-2.3,1.3-3.7,3.1-3.7
				c1,0,1.8,0.5,2.4,1.2v-3.8h1.1v9.8H172.8z M172.8,424.4v-3.2c-0.4-0.6-1.2-1.1-2.1-1.1c-1.4,0-2.3,1.2-2.3,2.7
				c0,1.6,0.8,2.7,2.3,2.7C171.6,425.6,172.4,425.1,172.8,424.4z"/>
			<path class="st35" d="M175.3,422.8c0-2.1,1.5-3.7,3.5-3.7c2.1,0,3.4,1.7,3.4,3.8v0.3h-5.7c0.1,1.3,1,2.4,2.5,2.4
				c0.8,0,1.6-0.3,2.2-0.9l0.5,0.7c-0.7,0.7-1.7,1.1-2.8,1.1C176.8,426.5,175.3,425,175.3,422.8z M178.8,420c-1.5,0-2.3,1.3-2.3,2.4
				h4.6C181.1,421.3,180.4,420,178.8,420z"/>
			<path class="st35" d="M183,425.4l0.6-0.8c0.5,0.5,1.4,1,2.3,1c1.1,0,1.7-0.5,1.7-1.2c0-1.7-4.4-0.7-4.4-3.3c0-1.1,1-2,2.6-2
				c1.2,0,2.1,0.5,2.6,1l-0.5,0.8c-0.4-0.5-1.2-0.9-2.1-0.9c-1,0-1.6,0.5-1.6,1.1c0,1.6,4.4,0.5,4.4,3.3c0,1.2-1,2.1-2.8,2.1
				C184.7,426.5,183.7,426.2,183,425.4z"/>
			<path class="st35" d="M189.9,417.5c0-0.4,0.3-0.7,0.7-0.7c0.4,0,0.7,0.3,0.7,0.7c0,0.4-0.3,0.7-0.7,0.7
				C190.2,418.3,189.9,418,189.9,417.5z M190.1,426.4v-7.1h1.1v7.1H190.1z"/>
			<path class="st35" d="M193,428.2l0.6-0.8c0.6,0.7,1.3,1,2.3,1c1.2,0,2.3-0.6,2.3-2.1v-1c-0.5,0.7-1.4,1.3-2.4,1.3
				c-1.8,0-3.1-1.4-3.1-3.7c0-2.3,1.3-3.7,3.1-3.7c1,0,1.8,0.5,2.4,1.2v-1.1h1.1v6.9c0,2.3-1.6,3.1-3.4,3.1
				C194.6,429.2,193.8,429,193,428.2z M198.1,424.3v-3.1c-0.4-0.6-1.2-1.1-2.1-1.1c-1.4,0-2.3,1.1-2.3,2.7c0,1.6,0.8,2.7,2.3,2.7
				C196.9,425.5,197.7,424.9,198.1,424.3z"/>
			<path class="st35" d="M205.8,426.4v-4.6c0-1.2-0.6-1.6-1.6-1.6c-0.9,0-1.7,0.5-2.1,1.1v5.2H201v-7.1h1.1v1
				c0.5-0.6,1.5-1.2,2.5-1.2c1.5,0,2.3,0.7,2.3,2.3v5H205.8z"/>
			<path class="st35" d="M208.3,422.8c0-2.1,1.5-3.7,3.5-3.7c2.1,0,3.4,1.7,3.4,3.8v0.3h-5.7c0.1,1.3,1,2.4,2.5,2.4
				c0.8,0,1.6-0.3,2.2-0.9l0.5,0.7c-0.7,0.7-1.7,1.1-2.8,1.1C209.8,426.5,208.3,425,208.3,422.8z M211.8,420c-1.5,0-2.3,1.3-2.3,2.4
				h4.6C214.1,421.3,213.4,420,211.8,420z"/>
			<path class="st35" d="M221.8,426.4v-1.1c-0.5,0.7-1.4,1.2-2.4,1.2c-1.8,0-3.1-1.4-3.1-3.7c0-2.3,1.3-3.7,3.1-3.7
				c1,0,1.8,0.5,2.4,1.2v-3.8h1.1v9.8H221.8z M221.8,424.4v-3.2c-0.4-0.6-1.2-1.1-2.1-1.1c-1.4,0-2.3,1.2-2.3,2.7
				c0,1.6,0.8,2.7,2.3,2.7C220.5,425.6,221.4,425.1,221.8,424.4z"/>
			<path class="st35" d="M228.1,426.4v-9.8h1.1v3.8c0.6-0.8,1.4-1.2,2.4-1.2c1.8,0,3.1,1.5,3.1,3.7c0,2.3-1.3,3.7-3.1,3.7
				c-1,0-1.9-0.5-2.4-1.2v1.1H228.1z M231.3,425.6c1.4,0,2.3-1.2,2.3-2.7c0-1.6-0.8-2.7-2.3-2.7c-0.9,0-1.7,0.5-2.1,1.1v3.2
				C229.6,425.1,230.4,425.6,231.3,425.6z"/>
			<path class="st35" d="M235.9,428.1c0.2,0.1,0.4,0.1,0.6,0.1c0.5,0,0.8-0.2,1.1-0.7l0.5-1.1l-3-7.1h1.2l2.4,5.8l2.3-5.8h1.2
				l-3.5,8.5c-0.4,1-1.1,1.4-2.1,1.4c-0.2,0-0.6,0-0.8-0.1L235.9,428.1z"/>
		</g>
	</g>
</g>
</svg>
