<?xml version="1.0" encoding="utf-8"?>
<!-- Generator: Adobe Illustrator 25.0.0, SVG Export Plug-In . SVG Version: 6.00 Build 0)  -->
<svg version="1.1" id="Layer_1" xmlns="http://www.w3.org/2000/svg" xmlns:xlink="http://www.w3.org/1999/xlink" x="0px" y="0px"
	 viewBox="0 0 613.3 421.3" style="enable-background:new 0 0 613.3 421.3;" xml:space="preserve">
<style type="text/css">
	.st0{fill:#FFFFFF;}
	.st1{fill:#ED1C24;}
</style>
<image style="display:none;overflow:visible;" width="640" height="443" xlink:href="C:\Users\ABHIN\Downloads\WhatsApp Image 2020-11-12 at 9.59.37 AM.jpg"  transform="matrix(1 0 0 1 5.5206 -8.8652)">
</image>
<path class="st0" d="M346.9,210.4l-8.2,48.4c0.2-1-3.1,6.3-8.2,9.3L180.9,394.4c-6.3,1.8-10.1,24.7,12.7,15.8l168.2-130
	c-1.8,0.2,12.7-8.5,18.7-22.4l17.9-87.4c1.8-1.5-2.8-20.8-21.5-7.7c-16.8,11.8-54.9,38.4-54.9,38.4s-0.7,2.7-3.3-1.1
	c-2.7-3.9-23.8-30-23.8-30c-1.6-1.6-10.9-6.8-17.8-1.1c-6,5-31.6,20.4-31.6,20.4c-3.3,1.7-0.2,16.4,14.9,13.3
	c0.2,0.8,6.4-4.3,7.8,0.4l22.9,30c-0.8,0.6,11.7,9.4,20.7,2.7C319.7,229.9,346.9,210.4,346.9,210.4z"/>
<path class="st1" d="M356,198.7L344.9,260c0.2-1-1.7,6.9-6.8,9.9L186.5,398.1c0,0-11.6,14.2,5.2,7l169.8-131.7c0,0,11.3-7.9,15-21.6
	l16.3-76.7c0,0,5-18.7-11.9-7s-57.8,40.1-57.8,40.1s-3.3,3.9-5.9,0s-27.4-33.6-27.4-33.6s-3.6-4.9-10.2-0.7
	c-6.7,4.1-26.8,17.8-26.8,17.8s-5.6,5.9,4,5.8c0,0,15.3-4.7,17,2.1l23.4,30.2c0,0,5.8,6.2,13.6,0.3C318.7,224,356,198.7,356,198.7z"
	/>
<path class="st0" d="M214.4,49.3l30-15.1c0,0,10.9,4.4,10.7,7.6l-6.7,48.7c0,0-1.6,5.3,3.1,1.8l18.4-8.7c5.8-3.4,19.5,2.4,14.7,12.2
	c0,0-0.7,3.1-6,5.3l-35.1,21.1l-13.6,74c0,0-3.2,4.9,4.6-0.4l8.1-0.7c0,0,7.8,3.1,8.9,6.2c0,0-2.4,8.4-6.4,11.3l-43.3,30
	c-1.4,2-22.2,2.2-19.1-15.7L214.4,49.3z"/>
<path class="st1" d="M220.4,52.4L246.2,40c0,0,4.2-0.9,4,2.2l-8.2,59.6c0,0-0.7,3.6,4,0l24-12.2c0,0,5.8-3.6,10.4,0.4
	c0,0,1.1,5.1-4.2,7.3l-36.9,21.8L224,204.9c0,0-2.7,6.9,5.1,1.6l8-6c0,0,7.1-1.6,8.2,1.6c0,0,1.6,4.7-2.4,7.6l-42,27.8
	c0,0-12.4,5.1-12.2-8.7L220.4,52.4z"/>
<path class="st0" d="M128.6,129l77.2-42.4c4-2.6,9.7-19.7-9.7-15.7l-116.4,51c0,0-22.8,17.2-11,37.6s45.9,75.9,45.9,75.9
	c-1.7-0.8,8.3,9.2-3.2,18.1c-13.6,10.4-88,52.7-88,52.7c-5.4,2.5-8.9,21.1,14.9,15.5l123.8-65.6c3-0.4,25.6-17.7,11.9-38.5
	l-50.3-80.9C123.6,136.7,123.8,131.8,128.6,129z"/>
<path class="st1" d="M120,130.5l82.4-47.1c0,0,10.4-8.6-4.7-7.4L83.3,126.7c0,0-19.3,11.1-7.4,31.5s48.6,78.8,48.6,78.8
	s6.5,13.6-9.2,20.4s-83.9,51-83.9,51s-10.7,11,4.7,9.2L157,254.4c0,0,22.5-11.3,12.7-32.6l-49.5-80
	C120.3,141.8,115.2,133.2,120,130.5z"/>
<path class="st0" d="M429.3,26.8l32-13.3c0,0,13.9,4.1,11,8.3l-24,152.3c0,0-3.6,11.3,5.9,1.5l46.5-27.3c2.7-2.5,23-1.3,15.1,9.8
	c0.8,0.7-28.6,38.2,10.7,45.6c-5.4-2.4,36.7,6,41.8-51c1.5,0.8-6.2-40.1-73.2-3.3c-4.6,6.3-26.6,10.4-16.9-10.4
	c0,0,34.7-30.5,76.7-25.7c0.5-0.9,49.6,12,37,57.2c2,0.4-11.7,45.7-62.5,58.1c1.4,1.4-56.5,18.8-67.3-29.3L423.4,225
	c0,0-22.5,7.7-21-10.1L429.3,26.8z"/>
<path class="st1" d="M435,30.4l27.6-11.9c0,0,7.1,0,4.1,4.1l-25.2,163.6c0,0-1.5,9.8,8,0l54.2-32.6c0,0,10.1-4,5,4.5
	c0,0-24.3,42.6,16,50.9c0,0,51.6,0.3,48.9-61.9c0,0-13.6-35.9-80-3c0,0-14.2,11.3-11.3-0.3c0,0,29.6-29.6,71.7-24.9
	c0,0,44.7,7.1,32.9,51c0,0-10.4,40.6-58.1,53.6c0,0-56,18.4-61.6-33.5L421.6,220c0,0-14.5,8.6-13-9.2L435,30.4z"/>
</svg>
